<svg width="17" height="17" viewBox="0 0 48 48" fill="none" xmlns="http://www.w3.org/2000/svg">
<path d="M34.885 27.145C36.275 24.515 37.025 21.575 37.025 18.505C37.025 13.565 35.095 8.91498 31.605 5.41498C24.385 -1.80499 12.635 -1.80499 5.41498 5.41498C-1.80499 12.635 -1.80499 24.385 5.41498 31.605C9.02502 35.215 13.765 37.015 18.505 37.015C21.485 37.015 24.455 36.305 27.155 34.885L35.455 43.185L43.185 35.445L34.885 27.145ZM6.83502 30.185C0.39502 23.745 0.39502 13.275 6.83502 6.83496C10.055 3.61499 14.275 2.005 18.505 2.005C22.735 2.005 26.965 3.61499 30.185 6.83496C33.305 9.94501 35.025 14.095 35.025 18.505C35.025 22.925 33.305 27.075 30.185 30.185C23.745 36.625 13.275 36.625 6.83502 30.185ZM46.395 38.655L44.595 36.855L36.865 44.595L38.665 46.395C39.725 47.455 41.125 47.995 42.525 47.995C43.925 47.995 45.325 47.455 46.395 46.395C48.525 44.265 48.525 40.785 46.395 38.655Z" fill="#928f8f"/>
</svg>

